<?xml version="1.0" encoding="UTF-8"?>
<svg xmlns="http://www.w3.org/2000/svg" width="1220" height="770" viewBox="0 0 1220 770">
  <defs>
    <marker id="arrow" markerWidth="10" markerHeight="10" refX="8" refY="3" orient="auto" markerUnits="strokeWidth">
      <path d="M0,0 L0,6 L8,3 z" fill="#5a5a5a"/>
    </marker>
  </defs>
  <rect width="100%" height="100%" fill="#ffffff"/>
  <rect x="150" y="35" width="920" height="680" fill="none" stroke="#303030" stroke-width="2"/>
  <path d="M150,35 H446 L424,71 H150 Z" fill="#ffffff" stroke="#303030" stroke-width="1.8"/>
  <text x="160" y="48.5" text-anchor="start" font-family="Arial, Helvetica, sans-serif" font-size="15" font-weight="600" fill="#202020"><tspan x="160" dy="0">UC tổng quát</tspan><tspan x="160" dy="17">Website bán ô tô cũ OkXe</tspan></text>
  
  <line x1="70" y1="195" x2="355" y2="105" stroke="#303030" stroke-width="1.8"/>


  <line x1="70" y1="195" x2="570" y2="145" stroke="#303030" stroke-width="1.8"/>


  <line x1="70" y1="195" x2="815" y2="115" stroke="#303030" stroke-width="1.8"/>


  <line x1="70" y1="195" x2="610" y2="250" stroke="#303030" stroke-width="1.8"/>


  <line x1="70" y1="195" x2="365" y2="320" stroke="#303030" stroke-width="1.8"/>


  <line x1="70" y1="195" x2="365" y2="465" stroke="#303030" stroke-width="1.8"/>


  <line x1="70" y1="195" x2="880" y2="415" stroke="#303030" stroke-width="1.8"/>


  <line x1="70" y1="535" x2="355" y2="105" stroke="#303030" stroke-width="1.8"/>


  <line x1="70" y1="535" x2="650" y2="380" stroke="#303030" stroke-width="1.8"/>


  <line x1="70" y1="535" x2="365" y2="465" stroke="#303030" stroke-width="1.8"/>


  <line x1="70" y1="535" x2="640" y2="500" stroke="#303030" stroke-width="1.8"/>


  <line x1="70" y1="535" x2="880" y2="415" stroke="#303030" stroke-width="1.8"/>


  <line x1="1148" y1="245" x2="875" y2="250" stroke="#303030" stroke-width="1.8"/>


  <line x1="1148" y1="245" x2="880" y2="535" stroke="#303030" stroke-width="1.8"/>


  <line x1="1148" y1="245" x2="355" y2="620" stroke="#303030" stroke-width="1.8"/>


  <line x1="1148" y1="555" x2="875" y2="250" stroke="#303030" stroke-width="1.8"/>


  <line x1="1148" y1="555" x2="880" y2="535" stroke="#303030" stroke-width="1.8"/>


  <line x1="1148" y1="555" x2="610" y2="620" stroke="#303030" stroke-width="1.8"/>


  <line x1="1148" y1="555" x2="355" y2="620" stroke="#303030" stroke-width="1.8"/>

  
    <line x1="640" y1="500" x2="365" y2="320" stroke="#5a5a5a" stroke-width="1.4" stroke-dasharray="7 6" marker-end="url(#arrow)"/>
    <text x="502.5" y="402" text-anchor="middle" font-family="Arial, Helvetica, sans-serif" font-size="13" font-weight="500" fill="#5a5a5a"><tspan x="502.5" dy="0">&lt;&lt;include&gt;&gt;</tspan></text>
  

    <line x1="650" y1="380" x2="365" y2="320" stroke="#5a5a5a" stroke-width="1.4" stroke-dasharray="7 6" marker-end="url(#arrow)"/>
    <text x="507.5" y="342" text-anchor="middle" font-family="Arial, Helvetica, sans-serif" font-size="13" font-weight="500" fill="#5a5a5a"><tspan x="507.5" dy="0">&lt;&lt;include&gt;&gt;</tspan></text>
  

    <line x1="880" y1="535" x2="875" y2="250" stroke="#5a5a5a" stroke-width="1.4" stroke-dasharray="7 6" marker-end="url(#arrow)"/>
    <text x="877.5" y="384.5" text-anchor="middle" font-family="Arial, Helvetica, sans-serif" font-size="13" font-weight="500" fill="#5a5a5a"><tspan x="877.5" dy="0">dùng dữ liệu xe</tspan></text>
  
  
  <g id="uc-browseCars">
    <ellipse cx="355" cy="105" rx="118" ry="38" fill="#fff4cf" stroke="#303030" stroke-width="1.8"/>
    <text x="355" y="110" text-anchor="middle" font-family="Arial, Helvetica, sans-serif" font-size="16" font-weight="600" fill="#202020"><tspan x="355" dy="0">Tra cứu danh mục xe</tspan></text>
  </g>


  <g id="uc-carDetail">
    <ellipse cx="570" cy="145" rx="118" ry="38" fill="#fff4cf" stroke="#303030" stroke-width="1.8"/>
    <text x="570" y="150" text-anchor="middle" font-family="Arial, Helvetica, sans-serif" font-size="16" font-weight="600" fill="#202020"><tspan x="570" dy="0">Xem chi tiết xe</tspan></text>
  </g>


  <g id="uc-compare">
    <ellipse cx="815" cy="115" rx="118" ry="38" fill="#fff4cf" stroke="#303030" stroke-width="1.8"/>
    <text x="815" y="120" text-anchor="middle" font-family="Arial, Helvetica, sans-serif" font-size="16" font-weight="600" fill="#202020"><tspan x="815" dy="0">So sánh xe</tspan></text>
  </g>


  <g id="uc-publicContent">
    <ellipse cx="610" cy="250" rx="145" ry="48" fill="#fff4cf" stroke="#303030" stroke-width="1.8"/>
    <text x="610" y="245" text-anchor="middle" font-family="Arial, Helvetica, sans-serif" font-size="16" font-weight="600" fill="#202020"><tspan x="610" dy="0">Xem khuyến mại,</tspan><tspan x="610" dy="20">tin mua xe, tư vấn bán hàng</tspan></text>
  </g>


  <g id="uc-auth">
    <ellipse cx="365" cy="320" rx="140" ry="50" fill="#fff4cf" stroke="#303030" stroke-width="1.8"/>
    <text x="365" y="315" text-anchor="middle" font-family="Arial, Helvetica, sans-serif" font-size="16" font-weight="600" fill="#202020"><tspan x="365" dy="0">Đăng ký / Đăng nhập /</tspan><tspan x="365" dy="20">Khôi phục mật khẩu</tspan></text>
  </g>


  <g id="uc-profile">
    <ellipse cx="650" cy="380" rx="145" ry="50" fill="#fff4cf" stroke="#303030" stroke-width="1.8"/>
    <text x="650" y="375" text-anchor="middle" font-family="Arial, Helvetica, sans-serif" font-size="16" font-weight="600" fill="#202020"><tspan x="650" dy="0">Quản lý hồ sơ,</tspan><tspan x="650" dy="20">yêu thích và thông báo</tspan></text>
  </g>


  <g id="uc-consult">
    <ellipse cx="365" cy="465" rx="132" ry="48" fill="#fff4cf" stroke="#303030" stroke-width="1.8"/>
    <text x="365" y="460" text-anchor="middle" font-family="Arial, Helvetica, sans-serif" font-size="16" font-weight="600" fill="#202020"><tspan x="365" dy="0">Gửi yêu cầu tư vấn</tspan><tspan x="365" dy="20">và báo giá</tspan></text>
  </g>


  <g id="uc-testDrive">
    <ellipse cx="640" cy="500" rx="118" ry="38" fill="#fff4cf" stroke="#303030" stroke-width="1.8"/>
    <text x="640" y="505" text-anchor="middle" font-family="Arial, Helvetica, sans-serif" font-size="16" font-weight="600" fill="#202020"><tspan x="640" dy="0">Đăng ký lái thử</tspan></text>
  </g>


  <g id="uc-buyRequest">
    <ellipse cx="880" cy="415" rx="130" ry="42" fill="#fff4cf" stroke="#303030" stroke-width="1.8"/>
    <text x="880" y="420" text-anchor="middle" font-family="Arial, Helvetica, sans-serif" font-size="16" font-weight="600" fill="#202020"><tspan x="880" dy="0">Đăng tin cần mua xe</tspan></text>
  </g>


  <g id="uc-adminCars">
    <ellipse cx="875" cy="250" rx="118" ry="38" fill="#fff4cf" stroke="#303030" stroke-width="1.8"/>
    <text x="875" y="255" text-anchor="middle" font-family="Arial, Helvetica, sans-serif" font-size="16" font-weight="600" fill="#202020"><tspan x="875" dy="0">Quản lý kho xe</tspan></text>
  </g>


  <g id="uc-adminOps">
    <ellipse cx="880" cy="535" rx="145" ry="50" fill="#fff4cf" stroke="#303030" stroke-width="1.8"/>
    <text x="880" y="530" text-anchor="middle" font-family="Arial, Helvetica, sans-serif" font-size="16" font-weight="600" fill="#202020"><tspan x="880" dy="0">Xử lý tư vấn,</tspan><tspan x="880" dy="20">lái thử, tin mua xe</tspan></text>
  </g>


  <g id="uc-adminUsers">
    <ellipse cx="610" cy="620" rx="145" ry="50" fill="#fff4cf" stroke="#303030" stroke-width="1.8"/>
    <text x="610" y="615" text-anchor="middle" font-family="Arial, Helvetica, sans-serif" font-size="16" font-weight="600" fill="#202020"><tspan x="610" dy="0">Quản lý khách hàng,</tspan><tspan x="610" dy="20">nhân viên, admin</tspan></text>
  </g>


  <g id="uc-adminPromo">
    <ellipse cx="355" cy="620" rx="130" ry="40" fill="#fff4cf" stroke="#303030" stroke-width="1.8"/>
    <text x="355" y="625" text-anchor="middle" font-family="Arial, Helvetica, sans-serif" font-size="16" font-weight="600" fill="#202020"><tspan x="355" dy="0">Quản lý khuyến mại</tspan></text>
  </g>

  
    <g id="actor-guest" stroke="#303030" stroke-width="2.2" fill="none" stroke-linecap="round" stroke-linejoin="round">
      <circle cx="70" cy="147" r="13" fill="#ffffff"/>
      <line x1="70" y1="160" x2="70" y2="205"/>
      <line x1="42" y1="180" x2="98" y2="180"/>
      <line x1="70" y1="205" x2="46" y2="243"/>
      <line x1="70" y1="205" x2="94" y2="243"/>
    </g>
    <text x="66" y="271" text-anchor="end" font-family="Arial, Helvetica, sans-serif" font-size="17" font-weight="600" fill="#202020"><tspan x="66" dy="0">Khách vãng lai</tspan></text>
  

    <g id="actor-customer" stroke="#303030" stroke-width="2.2" fill="none" stroke-linecap="round" stroke-linejoin="round">
      <circle cx="70" cy="487" r="13" fill="#ffffff"/>
      <line x1="70" y1="500" x2="70" y2="545"/>
      <line x1="42" y1="520" x2="98" y2="520"/>
      <line x1="70" y1="545" x2="46" y2="583"/>
      <line x1="70" y1="545" x2="94" y2="583"/>
    </g>
    <text x="66" y="611" text-anchor="end" font-family="Arial, Helvetica, sans-serif" font-size="17" font-weight="600" fill="#202020"><tspan x="66" dy="0">Khách hàng</tspan></text>
  

    <g id="actor-staff" stroke="#303030" stroke-width="2.2" fill="none" stroke-linecap="round" stroke-linejoin="round">
      <circle cx="1148" cy="197" r="13" fill="#ffffff"/>
      <line x1="1148" y1="210" x2="1148" y2="255"/>
      <line x1="1120" y1="230" x2="1176" y2="230"/>
      <line x1="1148" y1="255" x2="1124" y2="293"/>
      <line x1="1148" y1="255" x2="1172" y2="293"/>
    </g>
    <text x="1152" y="321" text-anchor="start" font-family="Arial, Helvetica, sans-serif" font-size="17" font-weight="600" fill="#202020"><tspan x="1152" dy="0">Nhân viên bán hàng</tspan></text>
  

    <g id="actor-admin" stroke="#303030" stroke-width="2.2" fill="none" stroke-linecap="round" stroke-linejoin="round">
      <circle cx="1148" cy="507" r="13" fill="#ffffff"/>
      <line x1="1148" y1="520" x2="1148" y2="565"/>
      <line x1="1120" y1="540" x2="1176" y2="540"/>
      <line x1="1148" y1="565" x2="1124" y2="603"/>
      <line x1="1148" y1="565" x2="1172" y2="603"/>
    </g>
    <text x="1152" y="631" text-anchor="start" font-family="Arial, Helvetica, sans-serif" font-size="17" font-weight="600" fill="#202020"><tspan x="1152" dy="0">Quản trị viên</tspan></text>
  
  
</svg>
