<?xml version="1.0" encoding="UTF-8"?>
<svg xmlns="http://www.w3.org/2000/svg" width="1220" height="770" viewBox="0 0 1220 770">
  <defs>
    <marker id="arrow" markerWidth="10" markerHeight="10" refX="8" refY="3" orient="auto" markerUnits="strokeWidth">
      <path d="M0,0 L0,6 L8,3 z" fill="#5a5a5a"/>
    </marker>
  </defs>
  <rect width="100%" height="100%" fill="#ffffff"/>
  <rect x="150" y="35" width="920" height="680" fill="none" stroke="#303030" stroke-width="2"/>
  <path d="M150,35 H360 L338,71 H150 Z" fill="#ffffff" stroke="#303030" stroke-width="1.8"/>
  <text x="160" y="57" text-anchor="start" font-family="Arial, Helvetica, sans-serif" font-size="15" font-weight="600" fill="#202020"><tspan x="160" dy="0">UC tài khoản và thông báo</tspan></text>
  
  <line x1="70" y1="305" x2="345" y2="100" stroke="#303030" stroke-width="1.8"/>


  <line x1="70" y1="305" x2="610" y2="95" stroke="#303030" stroke-width="1.8"/>


  <line x1="70" y1="305" x2="345" y2="245" stroke="#303030" stroke-width="1.8"/>


  <line x1="70" y1="305" x2="855" y2="245" stroke="#303030" stroke-width="1.8"/>


  <line x1="1148" y1="385" x2="855" y2="95" stroke="#303030" stroke-width="1.8"/>


  <line x1="1148" y1="385" x2="345" y2="395" stroke="#303030" stroke-width="1.8"/>


  <line x1="1148" y1="385" x2="610" y2="395" stroke="#303030" stroke-width="1.8"/>


  <line x1="1148" y1="385" x2="855" y2="395" stroke="#303030" stroke-width="1.8"/>


  <line x1="1148" y1="385" x2="345" y2="540" stroke="#303030" stroke-width="1.8"/>


  <line x1="1148" y1="385" x2="610" y2="540" stroke="#303030" stroke-width="1.8"/>


  <line x1="1148" y1="385" x2="855" y2="540" stroke="#303030" stroke-width="1.8"/>


  <line x1="70" y1="615" x2="610" y2="245" stroke="#303030" stroke-width="1.8"/>

  
    <line x1="345" y1="245" x2="610" y2="245" stroke="#5a5a5a" stroke-width="1.4" stroke-dasharray="7 6" marker-end="url(#arrow)"/>
    <text x="477.5" y="237" text-anchor="middle" font-family="Arial, Helvetica, sans-serif" font-size="13" font-weight="500" fill="#5a5a5a"><tspan x="477.5" dy="0">&lt;&lt;include&gt;&gt;</tspan></text>
  

    <line x1="855" y1="245" x2="610" y2="245" stroke="#5a5a5a" stroke-width="1.4" stroke-dasharray="7 6" marker-end="url(#arrow)"/>
    <text x="732.5" y="237" text-anchor="middle" font-family="Arial, Helvetica, sans-serif" font-size="13" font-weight="500" fill="#5a5a5a"><tspan x="732.5" dy="0">dùng OTP</tspan></text>
  

    <line x1="610" y1="395" x2="345" y2="395" stroke="#5a5a5a" stroke-width="1.4" stroke-dasharray="7 6" marker-end="url(#arrow)"/>
    <text x="477.5" y="387" text-anchor="middle" font-family="Arial, Helvetica, sans-serif" font-size="13" font-weight="500" fill="#5a5a5a"><tspan x="477.5" dy="0">&lt;&lt;extend&gt;&gt;</tspan></text>
  

    <line x1="610" y1="540" x2="610" y2="655" stroke="#5a5a5a" stroke-width="1.4" stroke-dasharray="7 6" marker-end="url(#arrow)"/>
    <text x="610" y="589.5" text-anchor="middle" font-family="Arial, Helvetica, sans-serif" font-size="13" font-weight="500" fill="#5a5a5a"><tspan x="610" dy="0">&lt;&lt;include&gt;&gt;</tspan></text>
  
  
  <g id="uc-signup">
    <ellipse cx="345" cy="100" rx="118" ry="38" fill="#fff4cf" stroke="#303030" stroke-width="1.8"/>
    <text x="345" y="105" text-anchor="middle" font-family="Arial, Helvetica, sans-serif" font-size="16" font-weight="600" fill="#202020"><tspan x="345" dy="0">Đăng ký tài khoản</tspan></text>
  </g>


  <g id="uc-login">
    <ellipse cx="610" cy="95" rx="105" ry="36" fill="#fff4cf" stroke="#303030" stroke-width="1.8"/>
    <text x="610" y="100" text-anchor="middle" font-family="Arial, Helvetica, sans-serif" font-size="16" font-weight="600" fill="#202020"><tspan x="610" dy="0">Đăng nhập</tspan></text>
  </g>


  <g id="uc-logout">
    <ellipse cx="855" cy="95" rx="105" ry="36" fill="#fff4cf" stroke="#303030" stroke-width="1.8"/>
    <text x="855" y="100" text-anchor="middle" font-family="Arial, Helvetica, sans-serif" font-size="16" font-weight="600" fill="#202020"><tspan x="855" dy="0">Đăng xuất</tspan></text>
  </g>


  <g id="uc-forgot">
    <ellipse cx="345" cy="245" rx="130" ry="48" fill="#fff4cf" stroke="#303030" stroke-width="1.8"/>
    <text x="345" y="240" text-anchor="middle" font-family="Arial, Helvetica, sans-serif" font-size="16" font-weight="600" fill="#202020"><tspan x="345" dy="0">Yêu cầu OTP</tspan><tspan x="345" dy="20">quên mật khẩu</tspan></text>
  </g>


  <g id="uc-sendOtp">
    <ellipse cx="610" cy="245" rx="145" ry="48" fill="#fff4cf" stroke="#303030" stroke-width="1.8"/>
    <text x="610" y="240" text-anchor="middle" font-family="Arial, Helvetica, sans-serif" font-size="16" font-weight="600" fill="#202020"><tspan x="610" dy="0">Gửi email OTP</tspan><tspan x="610" dy="20">hoặc file preview</tspan></text>
  </g>


  <g id="uc-reset">
    <ellipse cx="855" cy="245" rx="125" ry="40" fill="#fff4cf" stroke="#303030" stroke-width="1.8"/>
    <text x="855" y="250" text-anchor="middle" font-family="Arial, Helvetica, sans-serif" font-size="16" font-weight="600" fill="#202020"><tspan x="855" dy="0">Đặt lại mật khẩu</tspan></text>
  </g>


  <g id="uc-profile">
    <ellipse cx="345" cy="395" rx="140" ry="40" fill="#fff4cf" stroke="#303030" stroke-width="1.8"/>
    <text x="345" y="400" text-anchor="middle" font-family="Arial, Helvetica, sans-serif" font-size="16" font-weight="600" fill="#202020"><tspan x="345" dy="0">Xem thông tin tài khoản</tspan></text>
  </g>


  <g id="uc-updateProfile">
    <ellipse cx="610" cy="395" rx="155" ry="62" fill="#fff4cf" stroke="#303030" stroke-width="1.8"/>
    <text x="610" y="380" text-anchor="middle" font-family="Arial, Helvetica, sans-serif" font-size="16" font-weight="600" fill="#202020"><tspan x="610" dy="0">Cập nhật hồ sơ:</tspan><tspan x="610" dy="20">SĐT, CCCD, ngày sinh,</tspan><tspan x="610" dy="20">giới tính, địa chỉ</tspan></text>
  </g>


  <g id="uc-avatar">
    <ellipse cx="855" cy="395" rx="140" ry="40" fill="#fff4cf" stroke="#303030" stroke-width="1.8"/>
    <text x="855" y="400" text-anchor="middle" font-family="Arial, Helvetica, sans-serif" font-size="16" font-weight="600" fill="#202020"><tspan x="855" dy="0">Cập nhật ảnh đại diện</tspan></text>
  </g>


  <g id="uc-favorites">
    <ellipse cx="345" cy="540" rx="125" ry="40" fill="#fff4cf" stroke="#303030" stroke-width="1.8"/>
    <text x="345" y="545" text-anchor="middle" font-family="Arial, Helvetica, sans-serif" font-size="16" font-weight="600" fill="#202020"><tspan x="345" dy="0">Xem xe yêu thích</tspan></text>
  </g>


  <g id="uc-notifications">
    <ellipse cx="610" cy="540" rx="145" ry="40" fill="#fff4cf" stroke="#303030" stroke-width="1.8"/>
    <text x="610" y="545" text-anchor="middle" font-family="Arial, Helvetica, sans-serif" font-size="16" font-weight="600" fill="#202020"><tspan x="610" dy="0">Xem thông báo cá nhân</tspan></text>
  </g>


  <g id="uc-removeNotice">
    <ellipse cx="855" cy="540" rx="150" ry="48" fill="#fff4cf" stroke="#303030" stroke-width="1.8"/>
    <text x="855" y="535" text-anchor="middle" font-family="Arial, Helvetica, sans-serif" font-size="16" font-weight="600" fill="#202020"><tspan x="855" dy="0">Xóa thông báo / lịch</tspan><tspan x="855" dy="20">không còn nhu cầu</tspan></text>
  </g>


  <g id="uc-noticeTypes">
    <ellipse cx="610" cy="655" rx="155" ry="50" fill="#fff4cf" stroke="#303030" stroke-width="1.8"/>
    <text x="610" y="650" text-anchor="middle" font-family="Arial, Helvetica, sans-serif" font-size="16" font-weight="600" fill="#202020"><tspan x="610" dy="0">Nhận trạng thái lái thử,</tspan><tspan x="610" dy="20">tin mua xe, khuyến mại</tspan></text>
  </g>

  
    <g id="actor-guest" stroke="#303030" stroke-width="2.2" fill="none" stroke-linecap="round" stroke-linejoin="round">
      <circle cx="70" cy="257" r="13" fill="#ffffff"/>
      <line x1="70" y1="270" x2="70" y2="315"/>
      <line x1="42" y1="290" x2="98" y2="290"/>
      <line x1="70" y1="315" x2="46" y2="353"/>
      <line x1="70" y1="315" x2="94" y2="353"/>
    </g>
    <text x="66" y="381" text-anchor="end" font-family="Arial, Helvetica, sans-serif" font-size="17" font-weight="600" fill="#202020"><tspan x="66" dy="0">Khách vãng lai</tspan></text>
  

    <g id="actor-customer" stroke="#303030" stroke-width="2.2" fill="none" stroke-linecap="round" stroke-linejoin="round">
      <circle cx="1148" cy="337" r="13" fill="#ffffff"/>
      <line x1="1148" y1="350" x2="1148" y2="395"/>
      <line x1="1120" y1="370" x2="1176" y2="370"/>
      <line x1="1148" y1="395" x2="1124" y2="433"/>
      <line x1="1148" y1="395" x2="1172" y2="433"/>
    </g>
    <text x="1152" y="461" text-anchor="start" font-family="Arial, Helvetica, sans-serif" font-size="17" font-weight="600" fill="#202020"><tspan x="1152" dy="0">Khách hàng</tspan></text>
  

    <g id="actor-mail" stroke="#303030" stroke-width="2.2" fill="none" stroke-linecap="round" stroke-linejoin="round">
      <circle cx="70" cy="567" r="13" fill="#ffffff"/>
      <line x1="70" y1="580" x2="70" y2="625"/>
      <line x1="42" y1="600" x2="98" y2="600"/>
      <line x1="70" y1="625" x2="46" y2="663"/>
      <line x1="70" y1="625" x2="94" y2="663"/>
    </g>
    <text x="66" y="691" text-anchor="end" font-family="Arial, Helvetica, sans-serif" font-size="17" font-weight="600" fill="#202020"><tspan x="66" dy="0">Dịch vụ Email</tspan></text>
  
  
</svg>
