<?xml version="1.0" encoding="UTF-8"?>
<svg xmlns="http://www.w3.org/2000/svg" width="1220" height="770" viewBox="0 0 1220 770">
  <defs>
    <marker id="arrow" markerWidth="10" markerHeight="10" refX="8" refY="3" orient="auto" markerUnits="strokeWidth">
      <path d="M0,0 L0,6 L8,3 z" fill="#5a5a5a"/>
    </marker>
  </defs>
  <rect width="100%" height="100%" fill="#ffffff"/>
  <rect x="150" y="35" width="920" height="680" fill="none" stroke="#303030" stroke-width="2"/>
  <path d="M150,35 H450 L428,71 H150 Z" fill="#ffffff" stroke="#303030" stroke-width="1.8"/>
  <text x="160" y="48.5" text-anchor="start" font-family="Arial, Helvetica, sans-serif" font-size="15" font-weight="600" fill="#202020"><tspan x="160" dy="0">UC tin mua xe, khuyến mại,</tspan><tspan x="160" dy="17">đội ngũ tư vấn</tspan></text>
  
  <line x1="70" y1="320" x2="340" y2="95" stroke="#303030" stroke-width="1.8"/>


  <line x1="70" y1="320" x2="610" y2="95" stroke="#303030" stroke-width="1.8"/>


  <line x1="70" y1="320" x2="875" y2="95" stroke="#303030" stroke-width="1.8"/>


  <line x1="70" y1="320" x2="340" y2="365" stroke="#303030" stroke-width="1.8"/>


  <line x1="70" y1="320" x2="610" y2="365" stroke="#303030" stroke-width="1.8"/>


  <line x1="70" y1="320" x2="875" y2="365" stroke="#303030" stroke-width="1.8"/>


  <line x1="70" y1="320" x2="610" y2="505" stroke="#303030" stroke-width="1.8"/>


  <line x1="70" y1="575" x2="875" y2="95" stroke="#303030" stroke-width="1.8"/>


  <line x1="70" y1="575" x2="875" y2="225" stroke="#303030" stroke-width="1.8"/>


  <line x1="70" y1="575" x2="340" y2="365" stroke="#303030" stroke-width="1.8"/>


  <line x1="70" y1="575" x2="875" y2="365" stroke="#303030" stroke-width="1.8"/>


  <line x1="1148" y1="380" x2="340" y2="635" stroke="#303030" stroke-width="1.8"/>


  <line x1="1148" y1="380" x2="610" y2="635" stroke="#303030" stroke-width="1.8"/>


  <line x1="1148" y1="380" x2="875" y2="635" stroke="#303030" stroke-width="1.8"/>

  
    <line x1="340" y1="95" x2="610" y2="95" stroke="#5a5a5a" stroke-width="1.4" stroke-dasharray="7 6" marker-end="url(#arrow)"/>
    <text x="475" y="87" text-anchor="middle" font-family="Arial, Helvetica, sans-serif" font-size="13" font-weight="500" fill="#5a5a5a"><tspan x="475" dy="0">&lt;&lt;include&gt;&gt;</tspan></text>
  

    <line x1="875" y1="95" x2="610" y2="225" stroke="#5a5a5a" stroke-width="1.4" stroke-dasharray="7 6" marker-end="url(#arrow)"/>
    <text x="742.5" y="152" text-anchor="middle" font-family="Arial, Helvetica, sans-serif" font-size="13" font-weight="500" fill="#5a5a5a"><tspan x="742.5" dy="0">&lt;&lt;include&gt;&gt;</tspan></text>
  

    <line x1="340" y1="365" x2="610" y2="365" stroke="#5a5a5a" stroke-width="1.4" stroke-dasharray="7 6" marker-end="url(#arrow)"/>
    <text x="475" y="357" text-anchor="middle" font-family="Arial, Helvetica, sans-serif" font-size="13" font-weight="500" fill="#5a5a5a"><tspan x="475" dy="0">&lt;&lt;include&gt;&gt;</tspan></text>
  

    <line x1="875" y1="365" x2="610" y2="505" stroke="#5a5a5a" stroke-width="1.4" stroke-dasharray="7 6" marker-end="url(#arrow)"/>
    <text x="742.5" y="427" text-anchor="middle" font-family="Arial, Helvetica, sans-serif" font-size="13" font-weight="500" fill="#5a5a5a"><tspan x="742.5" dy="0">&lt;&lt;include&gt;&gt;</tspan></text>
  

    <line x1="610" y1="635" x2="875" y2="635" stroke="#5a5a5a" stroke-width="1.4" stroke-dasharray="7 6" marker-end="url(#arrow)"/>
    <text x="742.5" y="627" text-anchor="middle" font-family="Arial, Helvetica, sans-serif" font-size="13" font-weight="500" fill="#5a5a5a"><tspan x="742.5" dy="0">&lt;&lt;include&gt;&gt;</tspan></text>
  
  
  <g id="uc-viewBuyPosts">
    <ellipse cx="340" cy="95" rx="135" ry="48" fill="#fff4cf" stroke="#303030" stroke-width="1.8"/>
    <text x="340" y="90" text-anchor="middle" font-family="Arial, Helvetica, sans-serif" font-size="16" font-weight="600" fill="#202020"><tspan x="340" dy="0">Xem tin mua ô tô</tspan><tspan x="340" dy="20">đã duyệt</tspan></text>
  </g>


  <g id="uc-filterBuyPosts">
    <ellipse cx="610" cy="95" rx="150" ry="50" fill="#fff4cf" stroke="#303030" stroke-width="1.8"/>
    <text x="610" y="90" text-anchor="middle" font-family="Arial, Helvetica, sans-serif" font-size="16" font-weight="600" fill="#202020"><tspan x="610" dy="0">Lọc theo mức tiền,</tspan><tspan x="610" dy="20">tỉnh thành, phân trang</tspan></text>
  </g>


  <g id="uc-createBuyPost">
    <ellipse cx="875" cy="95" rx="135" ry="40" fill="#fff4cf" stroke="#303030" stroke-width="1.8"/>
    <text x="875" y="100" text-anchor="middle" font-family="Arial, Helvetica, sans-serif" font-size="16" font-weight="600" fill="#202020"><tspan x="875" dy="0">Đăng tin cần mua xe</tspan></text>
  </g>


  <g id="uc-vietnameseInput">
    <ellipse cx="610" cy="225" rx="155" ry="50" fill="#fff4cf" stroke="#303030" stroke-width="1.8"/>
    <text x="610" y="220" text-anchor="middle" font-family="Arial, Helvetica, sans-serif" font-size="16" font-weight="600" fill="#202020"><tspan x="610" dy="0">Nhập nội dung với</tspan><tspan x="610" dy="20">bộ gõ Telex/VNI/VIQR</tspan></text>
  </g>


  <g id="uc-myBuyPosts">
    <ellipse cx="875" cy="225" rx="135" ry="48" fill="#fff4cf" stroke="#303030" stroke-width="1.8"/>
    <text x="875" y="220" text-anchor="middle" font-family="Arial, Helvetica, sans-serif" font-size="16" font-weight="600" fill="#202020"><tspan x="875" dy="0">Xem trạng thái tin</tspan><tspan x="875" dy="20">đã gửi</tspan></text>
  </g>


  <g id="uc-promoPublic">
    <ellipse cx="340" cy="365" rx="150" ry="50" fill="#fff4cf" stroke="#303030" stroke-width="1.8"/>
    <text x="340" y="360" text-anchor="middle" font-family="Arial, Helvetica, sans-serif" font-size="16" font-weight="600" fill="#202020"><tspan x="340" dy="0">Xem danh sách</tspan><tspan x="340" dy="20">khuyến mại công khai</tspan></text>
  </g>


  <g id="uc-promoSearch">
    <ellipse cx="610" cy="365" rx="145" ry="50" fill="#fff4cf" stroke="#303030" stroke-width="1.8"/>
    <text x="610" y="360" text-anchor="middle" font-family="Arial, Helvetica, sans-serif" font-size="16" font-weight="600" fill="#202020"><tspan x="610" dy="0">Tìm kiếm và mở</tspan><tspan x="610" dy="20">chi tiết khuyến mại</tspan></text>
  </g>


  <g id="uc-teamPublic">
    <ellipse cx="875" cy="365" rx="145" ry="48" fill="#fff4cf" stroke="#303030" stroke-width="1.8"/>
    <text x="875" y="360" text-anchor="middle" font-family="Arial, Helvetica, sans-serif" font-size="16" font-weight="600" fill="#202020"><tspan x="875" dy="0">Xem đội ngũ tư vấn</tspan><tspan x="875" dy="20">bán hàng</tspan></text>
  </g>


  <g id="uc-teamSearch">
    <ellipse cx="610" cy="505" rx="145" ry="58" fill="#fff4cf" stroke="#303030" stroke-width="1.8"/>
    <text x="610" y="490" text-anchor="middle" font-family="Arial, Helvetica, sans-serif" font-size="16" font-weight="600" fill="#202020"><tspan x="610" dy="0">Tìm nhân viên,</tspan><tspan x="610" dy="20">xem tiểu sử,</tspan><tspan x="610" dy="20">liên hệ nhanh</tspan></text>
  </g>


  <g id="uc-manageBuyPosts">
    <ellipse cx="340" cy="635" rx="160" ry="52" fill="#fff4cf" stroke="#303030" stroke-width="1.8"/>
    <text x="340" y="630" text-anchor="middle" font-family="Arial, Helvetica, sans-serif" font-size="16" font-weight="600" fill="#202020"><tspan x="340" dy="0">Quản lý tin mua xe:</tspan><tspan x="340" dy="20">tìm, duyệt, từ chối, xóa</tspan></text>
  </g>


  <g id="uc-managePromos">
    <ellipse cx="610" cy="635" rx="160" ry="62" fill="#fff4cf" stroke="#303030" stroke-width="1.8"/>
    <text x="610" y="620" text-anchor="middle" font-family="Arial, Helvetica, sans-serif" font-size="16" font-weight="600" fill="#202020"><tspan x="610" dy="0">Quản lý khuyến mại:</tspan><tspan x="610" dy="20">thêm, sửa, xóa,</tspan><tspan x="610" dy="20">bật/tắt, sắp xếp</tspan></text>
  </g>


  <g id="uc-promoImage">
    <ellipse cx="875" cy="635" rx="155" ry="48" fill="#fff4cf" stroke="#303030" stroke-width="1.8"/>
    <text x="875" y="630" text-anchor="middle" font-family="Arial, Helvetica, sans-serif" font-size="16" font-weight="600" fill="#202020"><tspan x="875" dy="0">Tải ảnh và cắt banner</tspan><tspan x="875" dy="20">khuyến mại 2:1</tspan></text>
  </g>

  
    <g id="actor-guest" stroke="#303030" stroke-width="2.2" fill="none" stroke-linecap="round" stroke-linejoin="round">
      <circle cx="70" cy="272" r="13" fill="#ffffff"/>
      <line x1="70" y1="285" x2="70" y2="330"/>
      <line x1="42" y1="305" x2="98" y2="305"/>
      <line x1="70" y1="330" x2="46" y2="368"/>
      <line x1="70" y1="330" x2="94" y2="368"/>
    </g>
    <text x="66" y="396" text-anchor="end" font-family="Arial, Helvetica, sans-serif" font-size="17" font-weight="600" fill="#202020"><tspan x="66" dy="0">Khách vãng lai</tspan></text>
  

    <g id="actor-customer" stroke="#303030" stroke-width="2.2" fill="none" stroke-linecap="round" stroke-linejoin="round">
      <circle cx="70" cy="527" r="13" fill="#ffffff"/>
      <line x1="70" y1="540" x2="70" y2="585"/>
      <line x1="42" y1="560" x2="98" y2="560"/>
      <line x1="70" y1="585" x2="46" y2="623"/>
      <line x1="70" y1="585" x2="94" y2="623"/>
    </g>
    <text x="66" y="651" text-anchor="end" font-family="Arial, Helvetica, sans-serif" font-size="17" font-weight="600" fill="#202020"><tspan x="66" dy="0">Khách hàng</tspan></text>
  

    <g id="actor-staff" stroke="#303030" stroke-width="2.2" fill="none" stroke-linecap="round" stroke-linejoin="round">
      <circle cx="1148" cy="332" r="13" fill="#ffffff"/>
      <line x1="1148" y1="345" x2="1148" y2="390"/>
      <line x1="1120" y1="365" x2="1176" y2="365"/>
      <line x1="1148" y1="390" x2="1124" y2="428"/>
      <line x1="1148" y1="390" x2="1172" y2="428"/>
    </g>
    <text x="1152" y="456" text-anchor="start" font-family="Arial, Helvetica, sans-serif" font-size="17" font-weight="600" fill="#202020"><tspan x="1152" dy="0">Nhân viên / Admin</tspan></text>
  
  
</svg>
