<?xml version="1.0" encoding="UTF-8"?>
<svg xmlns="http://www.w3.org/2000/svg" width="1220" height="770" viewBox="0 0 1220 770">
  <defs>
    <marker id="arrow" markerWidth="10" markerHeight="10" refX="8" refY="3" orient="auto" markerUnits="strokeWidth">
      <path d="M0,0 L0,6 L8,3 z" fill="#5a5a5a"/>
    </marker>
  </defs>
  <rect width="100%" height="100%" fill="#ffffff"/>
  <rect x="150" y="35" width="920" height="680" fill="none" stroke="#303030" stroke-width="2"/>
  <path d="M150,35 H360 L338,71 H150 Z" fill="#ffffff" stroke="#303030" stroke-width="1.8"/>
  <text x="160" y="57" text-anchor="start" font-family="Arial, Helvetica, sans-serif" font-size="15" font-weight="600" fill="#202020"><tspan x="160" dy="0">UC quản trị hệ thống</tspan></text>
  
  <line x1="70" y1="380" x2="350" y2="85" stroke="#303030" stroke-width="1.8"/>


  <line x1="70" y1="380" x2="610" y2="85" stroke="#303030" stroke-width="1.8"/>


  <line x1="70" y1="380" x2="875" y2="85" stroke="#303030" stroke-width="1.8"/>


  <line x1="70" y1="380" x2="350" y2="235" stroke="#303030" stroke-width="1.8"/>


  <line x1="70" y1="380" x2="610" y2="235" stroke="#303030" stroke-width="1.8"/>


  <line x1="70" y1="380" x2="875" y2="235" stroke="#303030" stroke-width="1.8"/>


  <line x1="70" y1="380" x2="350" y2="395" stroke="#303030" stroke-width="1.8"/>


  <line x1="70" y1="380" x2="350" y2="575" stroke="#303030" stroke-width="1.8"/>


  <line x1="70" y1="380" x2="610" y2="575" stroke="#303030" stroke-width="1.8"/>


  <line x1="1148" y1="380" x2="350" y2="85" stroke="#303030" stroke-width="1.8"/>


  <line x1="1148" y1="380" x2="610" y2="85" stroke="#303030" stroke-width="1.8"/>


  <line x1="1148" y1="380" x2="875" y2="85" stroke="#303030" stroke-width="1.8"/>


  <line x1="1148" y1="380" x2="350" y2="235" stroke="#303030" stroke-width="1.8"/>


  <line x1="1148" y1="380" x2="610" y2="235" stroke="#303030" stroke-width="1.8"/>


  <line x1="1148" y1="380" x2="875" y2="235" stroke="#303030" stroke-width="1.8"/>


  <line x1="1148" y1="380" x2="350" y2="395" stroke="#303030" stroke-width="1.8"/>


  <line x1="1148" y1="380" x2="610" y2="395" stroke="#303030" stroke-width="1.8"/>


  <line x1="1148" y1="380" x2="875" y2="395" stroke="#303030" stroke-width="1.8"/>


  <line x1="1148" y1="380" x2="350" y2="575" stroke="#303030" stroke-width="1.8"/>


  <line x1="1148" y1="380" x2="610" y2="575" stroke="#303030" stroke-width="1.8"/>


  <line x1="1148" y1="380" x2="875" y2="575" stroke="#303030" stroke-width="1.8"/>

  
    <line x1="350" y1="235" x2="610" y2="235" stroke="#5a5a5a" stroke-width="1.4" stroke-dasharray="7 6" marker-end="url(#arrow)"/>
    <text x="480" y="227" text-anchor="middle" font-family="Arial, Helvetica, sans-serif" font-size="13" font-weight="500" fill="#5a5a5a"><tspan x="480" dy="0">&lt;&lt;include&gt;&gt;</tspan></text>
  

    <line x1="350" y1="235" x2="875" y2="235" stroke="#5a5a5a" stroke-width="1.4" stroke-dasharray="7 6" marker-end="url(#arrow)"/>
    <text x="612.5" y="227" text-anchor="middle" font-family="Arial, Helvetica, sans-serif" font-size="13" font-weight="500" fill="#5a5a5a"><tspan x="612.5" dy="0">&lt;&lt;include&gt;&gt;</tspan></text>
  

    <line x1="610" y1="395" x2="875" y2="575" stroke="#5a5a5a" stroke-width="1.4" stroke-dasharray="7 6" marker-end="url(#arrow)"/>
    <text x="742.5" y="477" text-anchor="middle" font-family="Arial, Helvetica, sans-serif" font-size="13" font-weight="500" fill="#5a5a5a"><tspan x="742.5" dy="0">&lt;&lt;include&gt;&gt;</tspan></text>
  

    <line x1="875" y1="395" x2="875" y2="575" stroke="#5a5a5a" stroke-width="1.4" stroke-dasharray="7 6" marker-end="url(#arrow)"/>
    <text x="875" y="477" text-anchor="middle" font-family="Arial, Helvetica, sans-serif" font-size="13" font-weight="500" fill="#5a5a5a"><tspan x="875" dy="0">&lt;&lt;include&gt;&gt;</tspan></text>
  
  
  <g id="uc-adminLogin">
    <ellipse cx="350" cy="85" rx="145" ry="48" fill="#fff4cf" stroke="#303030" stroke-width="1.8"/>
    <text x="350" y="80" text-anchor="middle" font-family="Arial, Helvetica, sans-serif" font-size="16" font-weight="600" fill="#202020"><tspan x="350" dy="0">Đăng nhập / đăng xuất</tspan><tspan x="350" dy="20">trang quản trị</tspan></text>
  </g>


  <g id="uc-viewAccount">
    <ellipse cx="610" cy="85" rx="130" ry="48" fill="#fff4cf" stroke="#303030" stroke-width="1.8"/>
    <text x="610" y="80" text-anchor="middle" font-family="Arial, Helvetica, sans-serif" font-size="16" font-weight="600" fill="#202020"><tspan x="610" dy="0">Xem tài khoản</tspan><tspan x="610" dy="20">đang đăng nhập</tspan></text>
  </g>


  <g id="uc-carStats">
    <ellipse cx="875" cy="85" rx="135" ry="40" fill="#fff4cf" stroke="#303030" stroke-width="1.8"/>
    <text x="875" y="90" text-anchor="middle" font-family="Arial, Helvetica, sans-serif" font-size="16" font-weight="600" fill="#202020"><tspan x="875" dy="0">Xem thống kê kho xe</tspan></text>
  </g>


  <g id="uc-carCrud">
    <ellipse cx="350" cy="235" rx="145" ry="58" fill="#fff4cf" stroke="#303030" stroke-width="1.8"/>
    <text x="350" y="220" text-anchor="middle" font-family="Arial, Helvetica, sans-serif" font-size="16" font-weight="600" fill="#202020"><tspan x="350" dy="0">Quản lý xe:</tspan><tspan x="350" dy="20">thêm, sửa, xóa,</tspan><tspan x="350" dy="20">tìm kiếm, tải lại</tspan></text>
  </g>


  <g id="uc-carImages">
    <ellipse cx="610" cy="235" rx="135" ry="40" fill="#fff4cf" stroke="#303030" stroke-width="1.8"/>
    <text x="610" y="240" text-anchor="middle" font-family="Arial, Helvetica, sans-serif" font-size="16" font-weight="600" fill="#202020"><tspan x="610" dy="0">Upload nhiều ảnh xe</tspan></text>
  </g>


  <g id="uc-carValidate">
    <ellipse cx="875" cy="235" rx="160" ry="62" fill="#fff4cf" stroke="#303030" stroke-width="1.8"/>
    <text x="875" y="220" text-anchor="middle" font-family="Arial, Helvetica, sans-serif" font-size="16" font-weight="600" fill="#202020"><tspan x="875" dy="0">Kiểm tra dữ liệu xe:</tspan><tspan x="875" dy="20">hãng, giá, mô tả,</tspan><tspan x="875" dy="20">thông số cố định</tspan></text>
  </g>


  <g id="uc-customerManage">
    <ellipse cx="350" cy="395" rx="155" ry="50" fill="#fff4cf" stroke="#303030" stroke-width="1.8"/>
    <text x="350" y="390" text-anchor="middle" font-family="Arial, Helvetica, sans-serif" font-size="16" font-weight="600" fill="#202020"><tspan x="350" dy="0">Quản lý khách hàng:</tspan><tspan x="350" dy="20">xem chi tiết, sửa hồ sơ</tspan></text>
  </g>


  <g id="uc-staffManage">
    <ellipse cx="610" cy="395" rx="150" ry="58" fill="#fff4cf" stroke="#303030" stroke-width="1.8"/>
    <text x="610" y="380" text-anchor="middle" font-family="Arial, Helvetica, sans-serif" font-size="16" font-weight="600" fill="#202020"><tspan x="610" dy="0">Quản lý nhân viên:</tspan><tspan x="610" dy="20">tạo, sửa, xóa,</tspan><tspan x="610" dy="20">hồ sơ bán hàng</tspan></text>
  </g>


  <g id="uc-adminManage">
    <ellipse cx="875" cy="395" rx="155" ry="58" fill="#fff4cf" stroke="#303030" stroke-width="1.8"/>
    <text x="875" y="380" text-anchor="middle" font-family="Arial, Helvetica, sans-serif" font-size="16" font-weight="600" fill="#202020"><tspan x="875" dy="0">Quản lý admin:</tspan><tspan x="875" dy="20">tạo/sửa/xóa,</tspan><tspan x="875" dy="20">bảo vệ admin cuối</tspan></text>
  </g>


  <g id="uc-opsManage">
    <ellipse cx="350" cy="575" rx="150" ry="58" fill="#fff4cf" stroke="#303030" stroke-width="1.8"/>
    <text x="350" y="560" text-anchor="middle" font-family="Arial, Helvetica, sans-serif" font-size="16" font-weight="600" fill="#202020"><tspan x="350" dy="0">Xử lý lịch lái thử,</tspan><tspan x="350" dy="20">yêu cầu tư vấn,</tspan><tspan x="350" dy="20">tin mua xe</tspan></text>
  </g>


  <g id="uc-promoManage">
    <ellipse cx="610" cy="575" rx="145" ry="48" fill="#fff4cf" stroke="#303030" stroke-width="1.8"/>
    <text x="610" y="570" text-anchor="middle" font-family="Arial, Helvetica, sans-serif" font-size="16" font-weight="600" fill="#202020"><tspan x="610" dy="0">Quản lý khuyến mại</tspan><tspan x="610" dy="20">và ảnh banner</tspan></text>
  </g>


  <g id="uc-roleGuard">
    <ellipse cx="875" cy="575" rx="160" ry="62" fill="#fff4cf" stroke="#303030" stroke-width="1.8"/>
    <text x="875" y="560" text-anchor="middle" font-family="Arial, Helvetica, sans-serif" font-size="16" font-weight="600" fill="#202020"><tspan x="875" dy="0">Phân quyền:</tspan><tspan x="875" dy="20">staff thao tác nghiệp vụ,</tspan><tspan x="875" dy="20">admin quản lý tài khoản</tspan></text>
  </g>

  
    <g id="actor-staff" stroke="#303030" stroke-width="2.2" fill="none" stroke-linecap="round" stroke-linejoin="round">
      <circle cx="70" cy="332" r="13" fill="#ffffff"/>
      <line x1="70" y1="345" x2="70" y2="390"/>
      <line x1="42" y1="365" x2="98" y2="365"/>
      <line x1="70" y1="390" x2="46" y2="428"/>
      <line x1="70" y1="390" x2="94" y2="428"/>
    </g>
    <text x="66" y="456" text-anchor="end" font-family="Arial, Helvetica, sans-serif" font-size="17" font-weight="600" fill="#202020"><tspan x="66" dy="0">Nhân viên bán hàng</tspan></text>
  

    <g id="actor-admin" stroke="#303030" stroke-width="2.2" fill="none" stroke-linecap="round" stroke-linejoin="round">
      <circle cx="1148" cy="332" r="13" fill="#ffffff"/>
      <line x1="1148" y1="345" x2="1148" y2="390"/>
      <line x1="1120" y1="365" x2="1176" y2="365"/>
      <line x1="1148" y1="390" x2="1124" y2="428"/>
      <line x1="1148" y1="390" x2="1172" y2="428"/>
    </g>
    <text x="1152" y="456" text-anchor="start" font-family="Arial, Helvetica, sans-serif" font-size="17" font-weight="600" fill="#202020"><tspan x="1152" dy="0">Quản trị viên</tspan></text>
  
  
</svg>
